{"glyphs":{"0":{"ha":603,"x_min":65,"x_max":538,"o":"m 301 -14 q 131 51 196 -14 q 65 221 65 115 l 65 751 q 131 922 65 857 q 301 986 196 986 q 472 922 407 986 q 538 751 538 857 l 538 221 q 472 51 538 115 q 301 -14 407 -14 m 301 125 q 367 150 343 125 q 390 221 390 175 l 390 751 q 367 822 390 797 q 301 847 343 847 q 236 822 260 847 q 213 751 213 797 l 213 221 q 236 150 213 175 q 301 125 260 125 z "},"1":{"ha":421,"x_min":29,"x_max":343,"o":"m 196 763 l 29 763 l 29 865 q 163 900 110 871 q 240 972 217 929 l 343 972 l 343 0 l 196 0 l 196 763 z "},"2":{"ha":554,"x_min":42,"x_max":508,"o":"m 217 139 l 508 139 l 508 0 l 42 0 l 42 128 l 257 471 q 339 624 317 565 q 361 740 361 683 q 338 819 361 792 q 272 846 315 846 q 206 819 229 846 q 183 740 183 792 l 183 683 l 42 683 l 42 729 q 103 917 42 849 q 274 985 165 985 q 446 921 383 985 q 508 744 508 857 q 480 590 508 665 q 378 396 451 514 l 217 139 z "},"3":{"ha":561,"x_min":39,"x_max":508,"o":"m 394 507 q 508 315 508 454 l 508 225 q 446 50 508 114 q 274 -14 383 -14 q 101 50 164 -14 q 39 225 39 114 l 39 254 l 181 268 l 181 236 q 271 125 181 125 q 338 150 314 125 q 361 222 361 175 l 361 324 q 335 408 361 382 q 250 435 308 435 l 192 435 l 192 574 l 240 574 q 325 600 299 574 q 351 685 351 626 l 351 760 q 330 825 351 803 q 268 847 308 847 q 185 746 185 847 l 185 724 l 43 724 l 43 757 q 103 924 43 863 q 271 986 164 986 q 438 924 378 986 q 499 757 499 863 l 499 693 q 472 581 499 628 q 394 507 446 533 z "},"4":{"ha":578,"x_min":33,"x_max":547,"o":"m 547 203 l 468 203 l 468 0 l 321 0 l 321 203 l 33 203 l 33 335 l 293 972 l 468 972 l 468 342 l 547 342 l 547 203 m 321 342 l 321 724 l 172 342 l 321 342 z "},"5":{"ha":576,"x_min":61,"x_max":525,"o":"m 293 -14 q 123 49 185 -14 q 61 222 61 113 l 61 251 l 203 265 l 203 233 q 290 125 203 125 q 355 149 332 125 q 378 219 378 172 l 378 444 q 357 508 378 486 q 300 529 336 529 q 234 503 260 529 q 208 433 208 478 l 208 417 l 67 417 l 67 972 l 488 972 l 488 833 l 208 833 l 208 592 q 263 642 225 621 q 349 663 301 663 q 478 609 431 663 q 525 467 525 556 l 525 222 q 463 49 525 113 q 293 -14 401 -14 z "},"6":{"ha":588,"x_min":65,"x_max":535,"o":"m 301 -14 q 131 51 196 -14 q 65 219 65 115 l 65 753 q 129 922 65 857 q 297 986 193 986 q 465 922 401 986 q 528 753 528 857 l 528 721 l 386 721 l 386 760 q 363 824 386 800 q 299 847 339 847 q 236 824 260 847 q 213 760 213 800 l 213 538 q 267 587 231 567 q 356 607 304 607 q 487 553 439 607 q 535 408 535 500 l 535 219 q 470 51 535 115 q 301 -14 406 -14 m 301 125 q 364 149 340 125 q 388 213 388 172 l 388 386 q 367 452 388 431 q 307 474 346 474 q 238 448 263 474 q 213 376 213 422 l 213 213 q 236 149 213 172 q 301 125 260 125 z "},"7":{"ha":510,"x_min":29,"x_max":476,"o":"m 476 972 l 476 844 l 243 0 l 90 0 l 333 831 l 29 831 l 29 972 l 476 972 z "},"8":{"ha":594,"x_min":53,"x_max":542,"o":"m 433 506 q 514 432 486 481 q 542 315 542 383 l 542 225 q 478 50 542 114 q 297 -14 414 -14 q 117 50 181 -14 q 53 225 53 114 l 53 315 q 81 432 53 383 q 161 506 108 481 q 88 580 114 532 q 63 693 63 628 l 63 757 q 124 925 63 864 q 297 986 186 986 q 470 925 408 986 q 532 757 532 864 l 532 693 q 506 580 532 628 q 433 506 481 532 m 210 685 q 297 574 210 574 q 385 685 385 574 l 385 760 q 363 825 385 803 q 297 847 340 847 q 232 825 254 847 q 210 760 210 803 l 210 685 m 394 324 q 370 408 394 381 q 297 435 346 435 q 224 408 249 435 q 200 324 200 381 l 200 222 q 297 125 200 125 q 394 222 394 125 l 394 324 z "},"9":{"ha":588,"x_min":39,"x_max":508,"o":"m 272 986 q 443 922 378 986 q 508 753 508 857 l 508 219 q 444 51 508 115 q 276 -14 381 -14 q 109 51 172 -14 q 46 219 46 115 l 46 251 l 188 251 l 188 213 q 212 149 188 174 q 275 125 236 125 q 338 149 314 125 q 361 213 361 172 l 361 435 q 306 385 343 406 q 218 365 269 365 q 87 419 135 365 q 39 564 39 472 l 39 753 q 103 922 39 857 q 272 986 168 986 m 272 847 q 210 824 233 847 q 186 760 186 800 l 186 586 q 207 520 186 542 q 267 499 228 499 q 336 524 311 499 q 361 596 361 550 l 361 760 q 338 824 361 800 q 272 847 314 847 z "}," ":{"ha":278,"x_min":0,"x_max":0,"o":""},"A":{"ha":586,"x_min":33,"x_max":553,"o":"m 371 215 l 213 215 l 181 0 l 33 0 l 194 972 l 392 972 l 553 0 l 403 0 l 371 215 m 351 357 l 292 764 l 232 357 l 351 357 z "},"B":{"ha":610,"x_min":81,"x_max":557,"o":"m 446 503 q 528 429 500 478 q 557 311 557 381 l 557 232 q 494 63 557 126 q 326 0 432 0 l 81 0 l 81 972 l 314 972 q 482 909 419 972 q 544 740 544 846 l 544 689 q 446 503 544 558 m 228 833 l 228 569 l 293 569 q 372 595 346 569 q 397 674 397 621 l 397 743 q 374 810 397 786 q 307 833 350 833 l 228 833 m 410 326 q 384 405 410 379 q 306 431 358 431 l 228 431 l 228 139 l 319 139 q 386 163 363 139 q 410 229 410 186 l 410 326 z "},"C":{"ha":583,"x_min":68,"x_max":529,"o":"m 299 -14 q 132 50 196 -14 q 68 217 68 114 l 68 756 q 132 922 68 858 q 299 986 196 986 q 465 922 401 986 q 529 756 529 858 l 529 642 l 385 642 l 385 756 q 361 822 385 797 q 300 847 338 847 q 239 822 263 847 q 215 756 215 797 l 215 217 q 239 150 215 175 q 300 125 263 125 q 361 150 338 125 q 385 217 385 175 l 385 356 l 529 356 l 529 217 q 465 50 529 114 q 299 -14 401 -14 z "},"D":{"ha":608,"x_min":81,"x_max":542,"o":"m 81 972 l 311 972 q 479 909 417 972 q 542 740 542 846 l 542 232 q 479 63 542 126 q 311 0 417 0 l 81 0 l 81 972 m 304 139 q 371 163 347 139 q 394 229 394 186 l 394 743 q 371 810 394 786 q 304 833 347 833 l 228 833 l 228 139 l 304 139 z "},"E":{"ha":542,"x_min":81,"x_max":499,"o":"m 81 972 l 499 972 l 499 833 l 228 833 l 228 563 l 443 563 l 443 424 l 228 424 l 228 139 l 499 139 l 499 0 l 81 0 l 81 972 z "},"F":{"ha":525,"x_min":81,"x_max":492,"o":"m 81 972 l 492 972 l 492 833 l 228 833 l 228 549 l 436 549 l 436 410 l 228 410 l 228 0 l 81 0 l 81 972 z "},"G":{"ha":603,"x_min":68,"x_max":540,"o":"m 393 669 l 393 751 q 369 822 393 797 q 304 847 346 847 q 239 822 263 847 q 215 751 215 797 l 215 221 q 239 150 215 175 q 304 125 263 125 q 369 150 346 125 q 393 221 393 175 l 393 393 l 304 393 l 304 532 l 540 532 l 540 221 q 475 51 540 115 q 304 -14 410 -14 q 133 51 199 -14 q 68 221 68 115 l 68 751 q 133 922 68 857 q 304 986 199 986 q 475 922 410 986 q 540 751 540 857 l 540 669 l 393 669 z "},"H":{"ha":631,"x_min":81,"x_max":550,"o":"m 81 0 l 81 972 l 228 972 l 228 563 l 403 563 l 403 972 l 550 972 l 550 0 l 403 0 l 403 424 l 228 424 l 228 0 l 81 0 z "},"I":{"ha":308,"x_min":81,"x_max":228,"o":"m 81 972 l 228 972 l 228 0 l 81 0 l 81 972 z "},"J":{"ha":429,"x_min":31,"x_max":354,"o":"m 125 -14 q 31 0 75 -14 l 50 132 q 107 125 75 125 q 183 153 160 125 q 207 243 207 181 l 207 972 l 354 972 l 354 217 q 292 49 354 113 q 125 -14 229 -14 z "},"K":{"ha":625,"x_min":81,"x_max":596,"o":"m 283 400 l 228 293 l 228 0 l 81 0 l 81 972 l 228 972 l 228 578 l 422 972 l 581 972 l 374 560 l 596 0 l 438 0 l 283 400 z "},"L":{"ha":524,"x_min":81,"x_max":490,"o":"m 81 972 l 228 972 l 228 139 l 490 139 l 490 0 l 81 0 l 81 972 z "},"M":{"ha":831,"x_min":81,"x_max":750,"o":"m 750 972 l 750 0 l 603 0 l 603 667 l 465 0 l 363 0 l 225 667 l 225 0 l 81 0 l 81 972 l 289 972 l 417 351 l 539 972 l 750 972 z "},"N":{"ha":656,"x_min":81,"x_max":575,"o":"m 81 972 l 243 972 l 431 319 l 431 972 l 575 972 l 575 0 l 419 0 l 225 622 l 225 0 l 81 0 l 81 972 z "},"O":{"ha":608,"x_min":68,"x_max":540,"o":"m 304 -14 q 133 51 199 -14 q 68 221 68 115 l 68 751 q 133 922 68 857 q 304 986 199 986 q 475 922 410 986 q 540 751 540 857 l 540 221 q 475 51 540 115 q 304 -14 410 -14 m 304 125 q 369 150 346 125 q 393 221 393 175 l 393 751 q 369 822 393 797 q 304 847 346 847 q 239 822 263 847 q 215 751 215 797 l 215 221 q 239 150 215 175 q 304 125 263 125 z "},"P":{"ha":585,"x_min":81,"x_max":542,"o":"m 81 972 l 311 972 q 479 909 417 972 q 542 740 542 846 l 542 626 q 479 458 542 521 q 311 394 417 394 l 228 394 l 228 0 l 81 0 l 81 972 m 304 533 q 371 557 347 533 q 394 624 394 581 l 394 743 q 371 810 394 786 q 304 833 347 833 l 228 833 l 228 533 l 304 533 z "},"Q":{"ha":619,"x_min":68,"x_max":567,"o":"m 513 100 q 567 86 531 86 l 567 -56 q 479 -39 514 -56 q 424 14 444 -22 q 304 -14 372 -14 q 133 51 199 -14 q 68 221 68 115 l 68 751 q 133 922 68 857 q 304 986 199 986 q 475 922 410 986 q 540 751 540 857 l 540 221 q 513 100 540 153 m 393 751 q 369 822 393 797 q 304 847 346 847 q 239 822 263 847 q 215 751 215 797 l 215 221 q 239 150 215 175 q 304 125 263 125 q 369 150 346 125 q 393 221 393 175 l 393 751 z "},"R":{"ha":604,"x_min":81,"x_max":564,"o":"m 411 0 l 304 401 l 228 401 l 228 0 l 81 0 l 81 972 l 311 972 q 479 909 417 972 q 542 740 542 846 l 542 633 q 515 515 542 567 q 440 435 489 464 l 564 0 l 411 0 m 228 540 l 304 540 q 371 564 347 540 q 394 631 394 588 l 394 743 q 371 810 394 786 q 304 833 347 833 l 228 833 l 228 540 z "},"S":{"ha":567,"x_min":47,"x_max":522,"o":"m 285 -14 q 161 17 215 -14 q 77 101 107 47 q 47 225 47 156 l 47 260 l 189 275 l 189 239 q 214 156 189 186 q 283 125 239 125 q 352 150 326 125 q 378 218 378 175 q 351 308 378 265 q 243 428 324 351 q 95 599 135 531 q 56 747 56 667 q 115 922 56 857 q 279 986 175 986 q 443 921 383 986 q 503 746 503 856 l 503 721 l 361 706 l 361 733 q 340 818 361 789 q 281 847 319 847 q 221 824 242 847 q 200 754 200 800 q 228 666 200 708 q 335 544 256 624 q 483 370 443 436 q 522 225 522 304 q 492 101 522 156 q 408 17 463 47 q 285 -14 354 -14 z "},"T":{"ha":536,"x_min":33,"x_max":503,"o":"m 33 972 l 503 972 l 503 833 l 342 833 l 342 0 l 194 0 l 194 833 l 33 833 l 33 972 z "},"U":{"ha":606,"x_min":75,"x_max":531,"o":"m 304 -14 q 139 49 203 -14 q 75 214 75 113 l 75 972 l 222 972 l 222 214 q 245 149 222 172 q 304 125 268 125 q 363 149 340 125 q 386 214 386 172 l 386 972 l 531 972 l 531 214 q 468 49 531 113 q 304 -14 406 -14 z "},"V":{"ha":586,"x_min":33,"x_max":553,"o":"m 553 972 l 392 0 l 194 0 l 33 972 l 183 972 l 294 208 l 406 972 l 553 972 z "},"W":{"ha":836,"x_min":35,"x_max":801,"o":"m 801 972 l 658 0 l 496 0 l 418 640 l 340 0 l 178 0 l 35 972 l 183 972 l 264 315 l 344 972 l 494 972 l 575 315 l 656 972 l 801 972 z "},"X":{"ha":615,"x_min":31,"x_max":585,"o":"m 426 0 l 301 339 l 183 0 l 31 0 l 224 503 l 43 972 l 201 972 l 317 661 l 425 972 l 578 972 l 394 496 l 585 0 l 426 0 z "},"Y":{"ha":597,"x_min":28,"x_max":569,"o":"m 569 972 l 372 407 l 372 0 l 225 0 l 225 407 l 28 972 l 185 972 l 299 601 l 415 972 l 569 972 z "},"Z":{"ha":531,"x_min":44,"x_max":486,"o":"m 486 847 l 208 139 l 486 139 l 486 0 l 44 0 l 44 125 l 322 833 l 44 833 l 44 972 l 486 972 l 486 847 z "},".":{"ha":328,"x_min":90,"x_max":238,"o":"m 90 146 l 238 146 l 238 0 l 90 0 l 90 146 z "},",":{"ha":328,"x_min":90,"x_max":238,"o":"m 143 0 l 90 0 l 90 146 l 238 146 l 238 14 l 160 -146 l 90 -146 l 143 0 z "},":":{"ha":328,"x_min":90,"x_max":238,"o":"m 90 146 l 238 146 l 238 0 l 90 0 l 90 146 m 90 669 l 238 669 l 238 524 l 90 524 l 90 669 z "},";":{"ha":328,"x_min":90,"x_max":238,"o":"m 143 0 l 90 0 l 90 146 l 238 146 l 238 14 l 160 -146 l 90 -146 l 143 0 m 90 669 l 238 669 l 238 524 l 90 524 l 90 669 z "},"!":{"ha":314,"x_min":83,"x_max":231,"o":"m 231 972 l 231 665 l 206 250 l 108 250 l 83 665 l 83 972 l 231 972 m 231 147 l 231 0 l 83 0 l 83 147 l 231 147 z "},"?":{"ha":558,"x_min":44,"x_max":511,"o":"m 183 272 q 209 422 183 365 q 282 539 235 478 q 343 634 322 590 q 364 742 364 678 q 341 820 364 793 q 275 847 318 847 q 209 820 232 847 q 186 742 186 793 l 186 683 l 44 683 l 44 731 q 106 918 44 850 q 276 986 168 986 q 449 922 386 986 q 511 746 511 858 q 483 602 511 660 q 401 481 454 544 q 332 380 356 425 q 308 272 308 335 l 308 250 l 183 250 l 183 272 m 172 147 l 319 147 l 319 0 l 172 0 l 172 147 z "},"·":{"ha":328,"x_min":90,"x_max":238,"o":"m 90 560 l 238 560 l 238 414 l 90 414 l 90 560 z "},"•":{"ha":556,"x_min":160,"x_max":396,"o":"m 160 604 l 396 604 l 396 369 l 160 369 l 160 604 z "},"*":{"ha":633,"x_min":44,"x_max":589,"o":"m 110 528 l 238 679 l 44 729 l 83 847 l 271 771 l 254 972 l 379 972 l 363 771 l 550 847 l 589 729 l 396 679 l 524 528 l 424 454 l 317 624 l 210 454 l 110 528 z "},"#":{"ha":649,"x_min":43,"x_max":606,"o":"m 119 263 l 43 263 l 53 372 l 129 372 l 158 661 l 81 661 l 92 771 l 169 771 l 190 972 l 311 972 l 292 771 l 407 771 l 426 972 l 547 972 l 528 771 l 606 771 l 594 661 l 518 661 l 489 372 l 567 372 l 554 263 l 478 263 l 451 0 l 329 0 l 356 263 l 240 263 l 213 0 l 90 0 l 119 263 m 368 372 l 396 661 l 279 661 l 250 372 l 368 372 z "},"/":{"ha":467,"x_min":13,"x_max":454,"o":"m 335 1018 l 454 1018 l 132 -46 l 13 -46 l 335 1018 z "},"\\":{"ha":467,"x_min":13,"x_max":454,"o":"m 13 1018 l 132 1018 l 454 -46 l 335 -46 l 13 1018 z "},"(":{"ha":358,"x_min":40,"x_max":329,"o":"m 238 -47 q 91 222 142 85 q 40 488 40 358 q 91 753 40 617 q 238 1022 142 890 l 329 982 q 222 722 256 840 q 188 488 188 603 q 222 253 188 372 q 329 -7 256 135 l 238 -47 z "},")":{"ha":358,"x_min":29,"x_max":318,"o":"m 29 -7 q 137 253 103 135 q 171 488 171 372 q 137 722 171 603 q 29 982 103 840 l 121 1022 q 267 753 217 890 q 318 488 318 617 q 267 222 318 358 q 121 -47 217 85 l 29 -7 z "},"{":{"ha":379,"x_min":29,"x_max":344,"o":"m 344 -42 q 163 0 218 -42 q 107 150 107 42 l 107 363 q 90 415 107 400 q 29 429 74 429 l 29 543 q 90 558 74 543 q 107 610 107 572 l 107 822 q 163 972 107 931 q 344 1014 218 1014 l 344 900 q 277 893 299 900 q 248 867 256 886 q 240 806 240 847 l 240 631 q 153 486 240 504 q 240 342 240 468 l 240 167 q 248 106 240 125 q 277 79 256 86 q 344 72 299 72 l 344 -42 z "},"}":{"ha":379,"x_min":35,"x_max":350,"o":"m 35 72 q 102 79 81 72 q 131 106 124 86 q 139 167 139 125 l 139 342 q 226 486 139 468 q 139 631 139 504 l 139 806 q 131 867 139 847 q 102 893 124 886 q 35 900 81 900 l 35 1014 q 217 972 161 1014 q 272 822 272 931 l 272 610 q 290 558 272 572 q 350 543 307 543 l 350 429 q 290 415 307 429 q 272 363 272 400 l 272 150 q 217 0 272 42 q 35 -42 161 -42 l 35 72 z "},"[":{"ha":360,"x_min":78,"x_max":325,"o":"m 78 1003 l 325 1003 l 325 889 l 211 889 l 211 82 l 325 82 l 325 -31 l 78 -31 l 78 1003 z "},"]":{"ha":358,"x_min":35,"x_max":281,"o":"m 35 82 l 149 82 l 149 889 l 35 889 l 35 1003 l 281 1003 l 281 -31 l 35 -31 l 35 82 z "},"-":{"ha":417,"x_min":42,"x_max":375,"o":"m 42 558 l 375 558 l 375 414 l 42 414 l 42 558 z "},"–":{"ha":556,"x_min":42,"x_max":514,"o":"m 42 551 l 514 551 l 514 421 l 42 421 l 42 551 z "},"—":{"ha":833,"x_min":42,"x_max":792,"o":"m 42 551 l 792 551 l 792 421 l 42 421 l 42 551 z "},"_":{"ha":556,"x_min":0,"x_max":556,"o":"m 0 -56 l 556 -56 l 556 -162 l 0 -162 l 0 -56 z "},"‚":{"ha":328,"x_min":90,"x_max":238,"o":"m 143 0 l 90 0 l 90 146 l 238 146 l 238 14 l 160 -146 l 90 -146 l 143 0 z "},"„":{"ha":550,"x_min":90,"x_max":460,"o":"m 365 0 l 313 0 l 313 146 l 460 146 l 460 14 l 382 -146 l 313 -146 l 365 0 m 143 0 l 90 0 l 90 146 l 238 146 l 238 14 l 160 -146 l 90 -146 l 143 0 z "},"“":{"ha":550,"x_min":90,"x_max":460,"o":"m 185 826 l 238 826 l 238 681 l 90 681 l 90 813 l 168 972 l 238 972 l 185 826 m 407 826 l 460 826 l 460 681 l 313 681 l 313 813 l 390 972 l 460 972 l 407 826 z "},"”":{"ha":550,"x_min":90,"x_max":460,"o":"m 365 826 l 313 826 l 313 972 l 460 972 l 460 840 l 382 681 l 313 681 l 365 826 m 143 826 l 90 826 l 90 972 l 238 972 l 238 840 l 160 681 l 90 681 l 143 826 z "},"‘":{"ha":328,"x_min":90,"x_max":238,"o":"m 185 826 l 238 826 l 238 681 l 90 681 l 90 813 l 168 972 l 238 972 l 185 826 z "},"’":{"ha":328,"x_min":90,"x_max":238,"o":"m 143 826 l 90 826 l 90 972 l 238 972 l 238 840 l 160 681 l 90 681 l 143 826 z "},"\"":{"ha":492,"x_min":63,"x_max":428,"o":"m 63 972 l 213 972 l 183 681 l 93 681 l 63 972 m 278 972 l 428 972 l 399 681 l 308 681 l 278 972 z "},"'":{"ha":276,"x_min":63,"x_max":213,"o":"m 63 972 l 213 972 l 183 681 l 93 681 l 63 972 z "},"¢":{"ha":608,"x_min":79,"x_max":540,"o":"m 396 607 l 396 644 q 372 711 396 686 q 311 736 349 736 q 250 711 274 736 q 226 644 226 686 l 226 328 q 250 261 226 286 q 311 236 274 236 q 372 261 349 236 q 396 328 396 286 l 396 390 l 540 390 l 540 328 q 497 185 540 244 q 378 106 453 125 l 378 14 l 253 14 l 253 103 q 126 180 174 119 q 79 328 79 240 l 79 644 q 126 792 79 732 q 253 869 174 853 l 253 958 l 378 958 l 378 867 q 497 788 453 847 q 540 644 540 728 l 540 607 l 396 607 z "},"$":{"ha":606,"x_min":65,"x_max":540,"o":"m 540 253 q 492 103 540 165 q 364 21 444 40 l 364 -56 l 239 -56 l 239 21 q 113 103 160 40 q 65 253 65 165 l 65 288 l 207 303 l 207 267 q 232 183 207 214 q 301 153 257 153 q 370 178 344 153 q 396 246 396 203 q 361 335 396 292 q 257 435 326 378 q 126 569 174 503 q 79 719 79 636 q 121 872 79 810 q 239 951 163 933 l 239 1028 l 364 1028 l 364 951 q 483 872 440 933 q 526 718 526 811 l 526 693 l 385 678 l 385 706 q 364 790 385 761 q 304 819 343 819 q 244 796 265 819 q 224 726 224 772 q 258 640 224 681 q 363 538 292 600 q 494 401 447 465 q 540 253 540 336 z "},"£":{"ha":608,"x_min":76,"x_max":540,"o":"m 396 686 l 396 732 q 379 820 396 794 q 317 846 363 846 q 235 747 235 846 q 246 678 235 714 q 279 593 257 642 q 326 465 314 514 l 485 465 l 485 332 l 339 332 q 319 227 336 269 q 260 139 303 185 l 540 139 l 540 0 l 76 0 l 76 128 q 179 203 147 158 q 214 332 211 249 l 76 332 l 76 465 l 192 465 q 157 532 185 483 q 107 636 124 588 q 90 756 90 685 q 149 924 90 863 q 315 985 207 985 q 483 924 425 985 q 540 756 540 863 l 540 686 l 396 686 z "},"+":{"ha":603,"x_min":51,"x_max":551,"o":"m 551 421 l 356 421 l 356 225 l 247 225 l 247 421 l 51 421 l 51 529 l 247 529 l 247 725 l 356 725 l 356 529 l 551 529 l 551 421 z "},"−":{"ha":603,"x_min":51,"x_max":551,"o":"m 551 421 l 51 421 l 51 529 l 551 529 l 551 421 z "},"=":{"ha":603,"x_min":58,"x_max":544,"o":"m 544 649 l 544 540 l 58 540 l 58 649 l 544 649 m 544 408 l 544 300 l 58 300 l 58 408 l 544 408 z "},">":{"ha":603,"x_min":58,"x_max":544,"o":"m 544 424 l 58 215 l 58 340 l 393 476 l 58 614 l 58 740 l 544 529 l 544 424 z "},"<":{"ha":589,"x_min":58,"x_max":544,"o":"m 544 740 l 544 614 l 210 476 l 544 340 l 544 215 l 58 424 l 58 529 l 544 740 z "},"~":{"ha":603,"x_min":40,"x_max":563,"o":"m 40 432 q 120 538 83 506 q 208 571 157 571 q 251 563 231 571 q 311 531 272 554 q 339 513 319 525 q 370 497 358 501 q 393 492 382 492 q 433 509 417 492 q 483 575 450 526 l 563 515 q 483 409 519 442 q 394 376 446 376 q 350 385 371 376 q 292 417 329 393 q 240 448 254 440 q 210 456 225 456 q 169 438 186 456 q 119 372 153 421 l 40 432 z "},"^":{"ha":603,"x_min":39,"x_max":564,"o":"m 356 972 l 564 486 l 439 486 l 303 821 l 165 486 l 39 486 l 250 972 l 356 972 z "},"%":{"ha":863,"x_min":64,"x_max":799,"o":"m 211 432 q 101 472 139 432 q 64 588 64 513 l 64 831 q 101 946 64 906 q 211 986 139 986 q 321 946 283 986 q 358 831 358 906 l 358 588 q 321 472 358 513 q 211 432 283 432 m 585 972 l 682 972 l 278 0 l 181 0 l 585 972 m 211 519 q 261 581 261 519 l 261 838 q 211 899 261 899 q 161 838 161 899 l 161 581 q 211 519 161 519 m 651 -14 q 542 26 579 -14 q 504 142 504 67 l 504 385 q 542 500 504 460 q 651 540 579 540 q 761 500 724 540 q 799 385 799 460 l 799 142 q 761 26 799 67 q 651 -14 724 -14 m 651 74 q 701 135 701 74 l 701 392 q 651 453 701 453 q 601 392 601 453 l 601 135 q 651 74 601 74 z "},"@":{"ha":1015,"x_min":61,"x_max":957,"o":"m 547 -83 q 189 41 317 -83 q 61 396 61 165 q 115 727 61 585 q 276 949 168 869 q 540 1028 383 1028 q 849 922 740 1028 q 957 619 957 817 q 933 410 957 510 q 854 244 910 310 q 710 179 799 179 q 583 272 601 179 q 525 203 561 228 q 444 179 489 179 q 337 222 372 179 q 301 339 301 264 q 304 379 301 351 l 322 563 q 373 701 332 656 q 481 746 414 746 q 607 676 569 746 l 613 732 l 747 732 l 706 357 l 704 340 q 739 304 704 304 q 815 404 789 304 q 842 622 842 504 q 763 833 842 757 q 544 910 685 910 q 275 769 358 910 q 192 382 192 628 q 285 123 192 213 q 550 33 379 33 q 679 52 619 33 q 800 115 739 71 l 789 -18 q 674 -68 733 -53 q 547 -83 615 -83 m 496 297 q 551 323 528 297 q 579 404 574 349 l 592 526 l 592 536 q 574 604 592 579 q 521 629 556 629 q 454 546 461 629 l 438 383 q 436 364 436 376 q 496 297 436 297 z "},"&":{"ha":719,"x_min":58,"x_max":676,"o":"m 500 0 l 458 68 q 275 -14 381 -14 q 119 49 179 -14 q 58 231 58 111 q 90 373 58 313 q 188 504 121 433 l 167 538 q 110 651 132 596 q 89 767 89 706 q 148 924 89 863 q 304 986 207 986 q 454 929 397 986 q 511 776 511 872 q 498 685 511 724 q 454 603 485 646 q 360 492 424 561 l 453 347 q 485 486 465 390 l 632 486 q 544 204 593 307 l 676 0 l 500 0 m 306 854 q 251 831 271 854 q 231 767 231 807 q 288 604 231 696 q 356 688 335 651 q 376 767 376 724 q 358 832 376 810 q 306 854 340 854 m 303 125 q 350 137 329 125 q 390 178 371 149 l 263 382 q 219 312 232 344 q 206 238 206 279 q 303 125 206 125 z "},"|":{"ha":556,"x_min":211,"x_max":344,"o":"m 211 1181 l 344 1181 l 344 -208 l 211 -208 l 211 1181 z "},"¦":{"ha":556,"x_min":211,"x_max":344,"o":"m 211 1181 l 344 1181 l 344 625 l 211 625 l 211 1181 m 211 347 l 344 347 l 344 -208 l 211 -208 l 211 347 z "},"`":{"ha":264,"x_min":21,"x_max":236,"o":"m 21 972 l 157 972 l 236 749 l 144 749 l 21 972 z "}}}
